# xmcd
#
# Track frame offsets:
#	150
#	22556
#	45124
#	66254
#	86444
#	106269
#	124925
#	150405
#	169204
#	182842
#	203065
#	222597
#	239652
#	259908
#	283697
#	299201
#	324124
#	338293
#
# Disc length: 4711 seconds
#
# Revision: 0
# Processed by: cddbd v1.5PL3 Copyright (c) Steve Scherf et al.
# Submitted via: MusicManager 7.0.3.0 
#
DISCID=fd126512
DTITLE=Amanda Marshall -  Greatest Hits
DYEAR=1900
DGENRE=rock
TTITLE0=I'll Be Ok
TTITLE1=Shades Of Grey
TTITLE2=Double Agent
TTITLE3=Let It Rain
TTITLE4=Ride
TTITLE5=Everybody's Got A Story
TTITLE6=Dark Horse
TTITLE7=Why Don't You Love Me
TTITLE8=The Voice Inside
TTITLE9=Believe In You
TTITLE10=Fall From Grace
TTITLE11=Love Lift Me
TTITLE12=The Gypsy
TTITLE13=Beautiful Goodbye
TTITLE14=Red Magic Marker
TTITLE15=If I Didn't Have You
TTITLE16=This Could Take All Night
TTITLE17=Love Is My Witness
EXTD=
EXTT0=
EXTT1=
EXTT2=
EXTT3=
EXTT4=
EXTT5=
EXTT6=
EXTT7=
EXTT8=
EXTT9=
EXTT10=
EXTT11=
EXTT12=
EXTT13=
EXTT14=
EXTT15=
EXTT16=
EXTT17=
PLAYORDER=
